HIERARCHY
ROOT Pelvis
{
	OFFSET 0.000000 0.000000 0.000000
	CHANNELS 6 Xposition Yposition Zposition Xrotation Yrotation Zrotation
	JOINT LeftUpLeg_virtual
	{
		OFFSET 0.000000 0.000000 0.000000
		CHANNELS 3 Xrotation Yrotation Zrotation
		JOINT LeftUpLeg
		{
			OFFSET 8.479700 -4.795502 -0.379100
			CHANNELS 3 Xrotation Yrotation Zrotation
			JOINT LeftLeg
			{
				OFFSET 0.024144 -32.555107 0.112900
				CHANNELS 3 Xrotation Yrotation Zrotation
				JOINT LeftFoot
				{
					OFFSET -0.024144 -32.638630 -3.012600
					CHANNELS 3 Xrotation Yrotation Zrotation
					JOINT LeftToeBase
					{
						OFFSET 0.970200 -13.225400 11.864200
						CHANNELS 3 Xrotation Yrotation Zrotation
						End Site
						{
							OFFSET 0 0 0
						}
					}
				}
			}
		}
	}
	JOINT RightUpLeg_virtual
	{
		OFFSET 0.000000 0.000000 0.000000
		CHANNELS 3 Xrotation Yrotation Zrotation
		JOINT RightUpLeg
		{
			OFFSET -8.479700 -4.795502 -0.379100
			CHANNELS 3 Xrotation Yrotation Zrotation
			JOINT RightLeg
			{
				OFFSET -0.023144 -32.555092 0.112900
				CHANNELS 3 Xrotation Yrotation Zrotation
				JOINT RightFoot
				{
					OFFSET 0.023144 -32.638641 -3.012700
					CHANNELS 3 Xrotation Yrotation Zrotation
					JOINT RightToeBase
					{
						OFFSET -0.970200 -13.225400 11.864200
						CHANNELS 3 Xrotation Yrotation Zrotation
						End Site
						{
							OFFSET 0 0 0
						}
					}
				}
			}
		}
	}
	JOINT Hips_virtual
	{
		OFFSET 0.000000 0.000000 0.000000
		CHANNELS 3 Xrotation Yrotation Zrotation
		JOINT Hips
		{
			OFFSET -0.000000 -0.000000 -0.000000
			CHANNELS 3 Xrotation Yrotation Zrotation
			JOINT Spine
			{
				OFFSET 0.000000 7.722000 1.166200
				CHANNELS 3 Xrotation Yrotation Zrotation
				JOINT Spine1
				{
					OFFSET 0.000000 12.024101 0.248800
					CHANNELS 3 Xrotation Yrotation Zrotation
					JOINT Spine2
					{
						OFFSET 0.000000 11.502998 -0.491200
						CHANNELS 3 Xrotation Yrotation Zrotation
						JOINT Neck_virtual
						{
							OFFSET 0.000000 0.000000 0.000000
							CHANNELS 3 Xrotation Yrotation Zrotation
							JOINT Neck
							{
								OFFSET 0.000000 18.430702 -3.123100
								CHANNELS 3 Xrotation Yrotation Zrotation
								JOINT Head
								{
									OFFSET 0.000000 9.051102 1.034000
									CHANNELS 3 Xrotation Yrotation Zrotation
									End Site
									{
										OFFSET 0 0 0
									}
								}
							}
						}
						JOINT LeftShoulder_virtual
						{
							OFFSET 0.000000 0.000000 0.000000
							CHANNELS 3 Xrotation Yrotation Zrotation
							JOINT LeftShoulder
							{
								OFFSET 6.197800 13.665199 -4.064700
								CHANNELS 3 Xrotation Yrotation Zrotation
								JOINT LeftArm
								{
									OFFSET 7.778100 -0.187103 -1.709300
									CHANNELS 3 Xrotation Yrotation Zrotation
									JOINT LeftForeArm
									{
										OFFSET 22.049376 0.000000 0.000000
										CHANNELS 3 Xrotation Yrotation Zrotation
										JOINT LeftHand
										{
											OFFSET 23.009392 0.000000 0.000000
											CHANNELS 3 Xrotation Yrotation Zrotation
											End Site
											{
												OFFSET 0 0 0
											}
										}
									}
								}
							}
						}
						JOINT RightShoulder_virtual
						{
							OFFSET 0.000000 0.000000 0.000000
							CHANNELS 3 Xrotation Yrotation Zrotation
							JOINT RightShoulder
							{
								OFFSET -6.197800 13.665199 -4.064700
								CHANNELS 3 Xrotation Yrotation Zrotation
								JOINT RightArm
								{
									OFFSET -7.778100 -0.187103 -1.709300
									CHANNELS 3 Xrotation Yrotation Zrotation
									JOINT RightForeArm
									{
										OFFSET -22.049376 0.000000 0.000000
										CHANNELS 3 Xrotation Yrotation Zrotation
										JOINT RightHand
										{
											OFFSET -23.009392 0.000000 0.000000
											CHANNELS 3 Xrotation Yrotation Zrotation
											End Site
											{
												OFFSET 0 0 0
											}
										}
									}
								}
							}
						}
					}
				}
			}
		}
	}
}
MOTION
Frames: 13
Frame Time: 0.03333333
-0.022833 116.594589 0.547331 0.000000 0.000000 0.000000 -1.011746 1.597823 0.408903 -25.953150 8.937671 2.782208 42.953147 14.325811 1.449998 34.781867 1.770436 6.776949 0.000000 0.000000 0.000000 -1.011746 1.597823 0.408903 -8.784527 -7.804816 -3.705168 25.857291 -19.847210 1.972654 46.217988 0.154356 0.546155 0.000000 0.000000 0.000000 -1.011746 1.597823 0.408903 0.000000 0.000000 0.000000 -2.805479 -0.052484 -0.089799 -5.611654 -0.102272 -0.620859 0.000000 0.000000 0.000000 -5.611651 -0.102273 -0.620860 -27.780271 0.884575 -2.478857 0.000000 0.000000 0.000000 -5.611651 -0.102273 -0.620860 7.248321 6.365627 32.385154 -52.895321 -36.819897 5.857846 -23.466869 -23.506890 1.478693 0.000000 0.000000 0.000000 -5.611651 -0.102273 -0.620860 2.277537 -6.651283 -36.122569 -64.303854 35.763888 7.685049 -24.527665 16.757150 0.686867 0.000000 0.000000 0.000000 
0.195318 116.749626 0.335268 0.000000 0.000000 0.000000 -0.858642 1.437246 0.404817 -26.936845 8.766047 2.358095 44.259018 10.252819 1.243705 34.365766 1.550259 3.332917 0.000000 0.000000 0.000000 -0.858642 1.437246 0.404817 -10.636610 -7.739100 -5.039903 32.778276 -18.799425 3.111992 41.651440 0.650167 2.904138 0.000000 0.000000 0.000000 -0.858642 1.437246 0.404817 0.000000 0.000000 0.000000 -2.727669 0.072982 -0.027563 -5.454583 0.132121 -0.464096 0.000000 0.000000 0.000000 -5.454586 0.132120 -0.464096 -28.934860 1.054856 -3.177760 0.000000 0.000000 0.000000 -5.454586 0.132120 -0.464096 7.446499 6.603388 32.450348 -54.448929 -35.183752 3.471669 -24.716310 -26.798660 2.385688 0.000000 0.000000 0.000000 -5.454586 0.132120 -0.464096 2.388920 -6.364263 -35.754599 -64.004992 34.598207 7.322056 -24.670428 19.891090 0.003033 0.000000 0.000000 0.000000 
0.445537 116.929543 -0.039043 0.000000 0.000000 0.000000 -0.598884 0.943771 0.347035 -28.286846 8.522961 1.816828 46.376916 4.911433 0.920829 32.985002 1.830542 0.479327 0.000000 0.000000 0.000000 -0.598884 0.943771 0.347035 -12.573122 -7.644244 -6.380327 40.146752 -14.973851 4.221027 35.452264 1.201541 7.455556 0.000000 0.000000 0.000000 -0.598884 0.943771 0.347035 0.000000 0.000000 0.000000 -2.641038 0.276556 0.075999 -5.279451 0.526127 -0.270102 0.000000 0.000000 0.000000 -5.279449 0.526127 -0.270102 -29.410525 0.905853 -3.426294 0.000000 0.000000 0.000000 -5.279449 0.526127 -0.270102 7.870904 7.117305 32.582263 -57.915879 -34.418457 -0.704284 -26.183257 -29.980115 4.243773 0.000000 0.000000 0.000000 -5.279449 0.526127 -0.270102 2.490092 -6.094539 -35.392852 -63.972412 33.630735 7.079514 -24.776935 22.588498 -0.847463 0.000000 0.000000 0.000000 
0.721607 117.128860 -0.524900 0.000000 0.000000 0.000000 -0.254323 0.114078 0.272661 -29.754681 8.242519 1.177020 48.756855 -0.954116 0.524627 30.919843 2.463228 -1.857264 0.000000 0.000000 0.000000 -0.254323 0.114078 0.272661 -13.717987 -7.506293 -7.701649 45.966384 -9.794595 5.109661 29.177885 1.666571 13.061950 0.000000 0.000000 0.000000 -0.254323 0.114078 0.272661 0.000000 0.000000 0.000000 -2.550663 0.541448 0.184067 -5.097276 1.039579 -0.044115 0.000000 0.000000 0.000000 -5.097281 1.039580 -0.044115 -29.440916 0.570003 -3.397076 0.000000 0.000000 0.000000 -5.097281 1.039580 -0.044115 8.458166 7.825093 32.740741 -62.473869 -34.058824 -5.800704 -27.569522 -32.988847 6.946106 0.000000 0.000000 0.000000 -5.097281 1.039580 -0.044115 2.587533 -5.828013 -35.023970 -64.095246 32.796311 6.908423 -24.852729 25.024789 -1.814137 0.000000 0.000000 0.000000 
1.028134 117.349289 -1.143200 0.000000 0.000000 0.000000 0.193418 -1.215083 0.201250 -31.260625 7.938264 0.413592 51.279284 -7.034288 0.046165 28.013681 3.480277 -3.527383 0.000000 0.000000 0.000000 0.193418 -1.215083 0.201250 -13.864056 -7.297938 -8.996708 49.745531 -4.104688 5.728869 23.454572 1.926556 18.851455 0.000000 0.000000 0.000000 0.193418 -1.215083 0.201250 0.000000 0.000000 0.000000 -2.457023 0.884162 0.274519 -4.910726 1.697762 0.223636 0.000000 0.000000 0.000000 -4.910725 1.697762 0.223636 -29.004323 0.063109 -3.103741 0.000000 0.000000 0.000000 -4.910725 1.697762 0.223636 9.233541 8.752141 32.902353 -68.084726 -34.014164 -11.684612 -28.691900 -35.708489 10.607567 0.000000 0.000000 0.000000 -4.910725 1.697762 0.223636 2.685330 -5.556065 -34.635353 -64.359623 32.111571 6.818235 -24.909985 27.211887 -2.862131 0.000000 0.000000 0.000000 
1.359692 117.595505 -1.901331 0.000000 0.000000 0.000000 0.742686 -3.186899 0.139389 -32.671827 7.614793 -0.432734 53.658427 -12.794147 -0.521188 24.295026 4.818842 -4.478974 0.000000 0.000000 0.000000 0.742686 -3.186899 0.139389 -13.065699 -7.064431 -10.145154 51.326911 0.896844 6.039208 19.299412 1.866393 23.554066 0.000000 0.000000 0.000000 0.742686 -3.186899 0.139389 0.000000 0.000000 0.000000 -2.360398 1.310110 0.344259 -4.723188 2.508977 0.535482 0.000000 0.000000 0.000000 -4.723185 2.508976 0.535481 -28.182575 -0.549758 -2.633666 0.000000 0.000000 0.000000 -4.723185 2.508976 0.535481 10.189768 9.888206 33.023866 -74.312322 -34.065674 -17.866409 -29.379601 -38.014777 15.101029 0.000000 0.000000 0.000000 -4.723185 2.508976 0.535481 2.789751 -5.266860 -34.220303 -64.727879 31.588293 6.818400 -24.982522 29.172793 -3.904969 0.000000 0.000000 0.000000 
1.705506 117.887711 -2.784981 0.000000 0.000000 0.000000 1.372359 -5.898891 0.055353 -33.833970 7.253308 -1.255227 55.530056 -17.631512 -1.176676 19.934208 6.330072 -4.746408 0.000000 0.000000 0.000000 1.372359 -5.898891 0.055353 -11.444714 -6.872384 -11.014816 50.908193 4.216039 6.003645 17.040979 1.332520 26.159684 0.000000 0.000000 0.000000 1.372359 -5.898891 0.055353 0.000000 0.000000 0.000000 -2.260469 1.809770 0.434804 -4.534729 3.469904 0.884206 0.000000 0.000000 0.000000 -4.534733 3.469906 0.884206 -27.111884 -1.184090 -2.102647 0.000000 0.000000 0.000000 -4.534733 3.469906 0.884206 11.294373 11.203107 33.051641 -80.408757 -34.056122 -23.606498 -29.576167 -39.839346 20.033908 0.000000 0.000000 0.000000 -4.534733 3.469906 0.884206 2.906459 -4.949839 -33.790886 -65.165401 31.264091 6.922766 -25.133921 30.857996 -4.805783 0.000000 0.000000 0.000000 
2.045952 118.229912 -3.780741 0.000000 0.000000 0.000000 2.046858 -9.385414 -0.066420 -34.656899 6.845319 -1.950399 56.635713 -20.995522 -1.891518 15.179404 7.807949 -4.407613 0.000000 0.000000 0.000000 2.046858 -9.385414 -0.066420 -9.270804 -6.731102 -11.562643 48.828169 5.486489 5.640323 16.766784 0.160114 26.170111 0.000000 0.000000 0.000000 2.046858 -9.385414 -0.066420 0.000000 0.000001 0.000000 -2.155753 2.368966 0.575528 -4.340537 4.570001 1.252511 0.000000 0.000000 0.000000 -4.340537 4.569999 1.252510 -25.918869 -1.766285 -1.605709 0.000000 0.000000 0.000000 -4.340537 4.569999 1.252510 12.501723 12.661023 32.933294 -85.514829 -34.004534 -28.122874 -29.374437 -41.217022 24.826879 0.000000 0.000000 0.000000 -4.340537 4.569999 1.252510 3.041354 -4.601571 -33.388413 -65.659387 31.221645 7.145087 -25.453864 32.084756 -5.394902 0.000000 0.000000 0.000000 
2.353441 118.584877 -4.907927 0.000000 0.000000 0.000000 2.725264 -13.612772 -0.180197 -35.180634 6.429141 -2.476914 56.947423 -22.455510 -2.586764 10.377289 9.030808 -3.534173 0.000000 0.000000 0.000000 2.725264 -13.612772 -0.180197 -7.145462 -6.577248 -11.857895 45.505647 4.841089 5.026385 19.046800 -1.399647 23.623550 0.000000 0.000000 0.000000 2.725264 -13.612772 -0.180197 0.000000 0.000000 0.000000 -2.040893 2.981794 0.734105 -4.130058 5.793614 1.615224 0.000000 0.000000 0.000000 -4.130057 5.793611 1.615224 -24.664790 -2.254932 -1.178230 0.000000 0.000000 0.000000 -4.130057 5.793611 1.615224 13.763036 14.232866 32.629829 -88.943809 -34.043483 -30.861021 -28.978129 -42.260552 28.890358 0.000000 0.000000 0.000000 -4.130057 5.793611 1.615224 3.198336 -4.228739 -33.081830 -66.224073 31.575934 7.487489 -26.023511 32.552538 -5.524308 0.000000 0.000000 0.000000 
2.608804 118.920845 -6.176273 0.000000 0.000000 0.000000 3.370410 -18.473929 -0.246338 -35.438925 6.044380 -2.822004 56.527178 -21.807874 -3.139964 5.888428 9.810895 -2.194893 0.000000 0.000000 0.000000 3.370410 -18.473929 -0.246338 -5.175326 -6.352006 -12.053435 40.935714 3.112192 4.247392 22.995131 -3.188066 19.494473 0.000000 0.000000 0.000000 3.370410 -18.473929 -0.246338 0.000000 0.000002 0.000000 -1.908813 3.642384 0.879763 -3.889515 7.120298 1.944604 0.000000 0.000000 0.000000 -3.889511 7.120292 1.944601 -23.324761 -2.646626 -0.788795 0.000000 0.000000 0.000000 -3.889511 7.120292 1.944601 15.037104 15.896917 32.125580 -90.398633 -34.238857 -31.667633 -28.634188 -43.072498 31.809482 0.000000 0.000000 0.000000 -3.889511 7.120292 1.944601 3.379261 -3.849118 -32.948539 -66.884593 32.416201 7.927990 -26.847155 31.973926 -5.155733 0.000000 0.000000 0.000000 
2.801657 119.203812 -7.585058 0.000000 0.000000 0.000000 3.953892 -23.800392 -0.224561 -35.431190 5.722155 -3.010810 55.445065 -19.122573 -3.418259 2.052826 10.037766 -0.474254 0.000000 0.000000 0.000000 3.953892 -23.800392 -0.224561 -3.600014 -6.025749 -12.260659 35.536491 0.868737 3.358645 27.900100 -4.988859 14.449766 0.000000 0.000000 0.000000 3.953892 -23.800392 -0.224561 0.000000 0.000001 0.000000 -1.751516 4.342445 0.975390 -3.605110 8.522696 2.216127 0.000000 0.000000 0.000000 -3.605111 8.522702 2.216127 -21.812525 -2.965288 -0.361468 0.000000 0.000000 0.000000 -3.605111 8.522702 2.216127 16.294422 17.628850 31.433340 -90.046168 -34.488962 -30.807544 -28.576916 -43.682352 33.446333 0.000000 0.000000 0.000000 -3.605111 8.522702 2.216127 3.581645 -3.487962 -33.043308 -67.642191 33.723455 8.410956 -27.796835 30.284943 -4.416861 0.000000 0.000000 0.000000 
2.933654 119.399834 -9.102444 0.000000 0.000000 0.000000 4.457617 -29.381155 -0.090663 -35.109495 5.473951 -3.101355 53.693852 -14.739459 -3.329736 -0.751287 9.710167 1.485752 0.000000 0.000000 0.000000 4.457617 -29.381155 -0.090663 -2.706740 -5.593926 -12.518106 30.075208 -1.373603 2.393589 33.058826 -6.629863 9.070695 0.000000 0.000000 0.000000 4.457617 -29.381155 -0.090663 0.000000 -0.000001 0.000000 -1.562899 5.065442 0.997300 -3.267151 9.965074 2.414107 0.000000 0.000000 0.000000 -3.267151 9.965074 2.414106 -20.032673 -3.245807 0.185452 0.000000 0.000000 0.000000 -3.267151 9.965074 2.414106 17.517876 19.383711 30.593029 -88.476351 -34.593481 -28.873088 -28.965897 -44.074473 33.961046 0.000000 0.000000 0.000000 -3.267151 9.965074 2.414106 3.795886 -3.172358 -33.363866 -68.428735 35.296092 8.842237 -28.630702 27.861621 -3.555749 0.000000 0.000000 0.000000 
3.017114 119.473351 -10.660753 0.000000 0.000000 0.000000 4.873928 -34.998412 0.155551 -34.437380 5.290286 -3.162011 51.239212 -9.251312 -2.846959 -2.105995 8.956553 3.422353 0.000000 0.000000 0.000000 4.873928 -34.998412 0.155551 -2.763746 -5.047233 -12.813413 25.524246 -3.082142 1.405287 37.741166 -8.002355 3.986565 0.000000 0.000000 0.000000 4.873928 -34.998412 0.155551 0.000000 -0.000001 0.000000 -1.342147 5.786613 0.949331 -2.873689 11.404935 2.535439 0.000000 0.000000 0.000000 -2.873692 11.404939 2.535438 -17.940549 -3.517150 0.898560 0.000000 0.000000 0.000000 -2.873692 11.404939 2.535438 18.699127 21.079897 29.659571 -86.490405 -34.421531 -26.562411 -29.825124 -44.296908 33.725924 0.000000 0.000000 0.000000 -2.873692 11.404939 2.535438 4.003542 -2.924016 -33.832550 -69.081612 36.746718 9.099341 -29.094591 25.572054 -2.803941 0.000000 0.000000 0.000000 
